<svg xmlns="http://www.w3.org/2000/svg" viewBox="0 0 1200 12" preserveAspectRatio="none"><path d="M0 5.9l4 1.5 4 0.8 4 0 4 0.1 4-0.1 4-0.2 4-0.3 4 0.2 4 0.1 4 0.2 4 0 4 0 4 0.2 4 0.4 4-0.2 4 0 4 0.5 4 0.2 4 0 4 0.1 4 0.1 4-1 4-0.5 4 1.1 4 0.1 4-0.9 4-0.2 4 0 4 0.8 3.9 0.5 4-0.3 4 0.1 4 0.2 4 0.2 4 0.3 4 0.3 4.1 0.2 4-0.3 4 0 4 0 4 0.1 4 0 4-0.7 4-0.5 4.1 0.4 4 0.2 4 0.3 3.9-0.6 4-1 4 0.6 4 0.4 4 0.6 4-0.2 4-1 4.1 0 4 0.1 4 0.3 4 0.1 4-0.6 3.9-0.2 4 0.1 4-0.3 4-0.4 4 0.6 4 0.4 4 0.4 4.1-0.3 4-1 4 0.2 4 0.4 3.9 0.2 4 0.1 3.9-0.5 4-0.1 4 0.2 4 0.2 4 0.2 4 0.6 4.1 0.3 4-0.5 4-0.2 4-0.5 4 0.1 4 0.3 4-0.2 4-0.2 4 0.7 4 0 4-0.5 4 0 4 0 4 0.2 4 0.1 4 0.2 4 0.2 4 0.5 3.9-0.6 4-0.9 4 0.4 4 0.3 4 1.1 4.1 0.3 4-0.1 4.1-0.4 4-0.6 4 0.5 3.9 0.2 4-0.7 3.9-0.1 4 0.1 4 0.2 4 0.2 4 0.2 4.1 0.1 4 0.2 4.1-0.1 4-0.1 4-0.4 3.9-0.6 4 0 4 0 4 0.3 4 0.1 4 0.2 4 0 4 0.1 4 0.2 4 0.1 4 0.2 4 0 4-0.1 4-0.2 4-0.3 4-0.2 4-0.1 4-0.4 4 0.1 4 0.5 3.9 0.2 4 0.2 4-0.5 4-0.1 4 0.9 4.1 0.2 4-0.1 4.1 0.1 4 0.2 4-0.5 3.9-0.2 4 0.3 4-0.1 4-0.9 4 0.4 4 0.5 4 0.2 4 0.1 4 0 4-0.3 4-0.9 4 0.3 4.1 0.6 3.9-0.9 4-0.6 4.1 0.5 4 0.2 4 0.3 4-0.2 4-0.4 3.9-0.1 4-0.1 4 0.4 4-0.3 4-1 4-0.2 4-0.1 4.1 0.4 3.9 0.2 4 0.1 4-0.1 4-0.3 4-0.1 4-0.2 4.1 0.7 4 0.4 3.9-0.5 4-0.2 3.9-0.5 4 0.2 4 0.3 4 0.2 4 0.1 4.1 0.4 4 0.1 4.1-0.3 4-0.2 3.9-0.2 4-0.3 4-0.2 4 0.2 4 0.1 4-0.1 4 0.3 4 0.3 4 0.5 4 0.2 4-0.7 4-0.1 4 0 4-0.3 4-0.5 4 0 4 0.1 4 0.5 4 0.1 4-0.1 4-0.1 4 0 3.9 0.4 4 0.2 4-0.2 4.1 0 4-0.1 4-0.2 4-0.2 4 0 4 0 4 0.6 4 0.3 4.1 0.5 4-0.2 4-0.3 4-0.2 3.9-0.1 4-0.3 4 0 4-0.1 4 0.3 4 0.3 4 0 4 0 4-0.6 4 0 4 0.6 4 0 4-0.1 4-0.2 4 0 4-0.1 4 0 4 0.4 4 0.1 4 0 4-0.5 4-0.3 4 0.5 4 0.2 4 0.3 4 0 4.1 0 4-0.7 4-0.4 4 0.9 4 0.1 3.9-0.5 4-0.2 4-0.2 4-0.1 4-0.1 4 0.5 4 0.1 4-0.1 4 0.1 4 0.1 4-0.2 4-0.1 4-0.1 4 0.1 4 0.5 4-0.2 4-0.4 4-0.2 4-0.1 4 0.3 3.9 0.2 4 0.5 4 0.1 4.1 0.1 4-0.1 4-0.1 4-0.5 4-0.1 4 0.3 4 0 4 0.1 4 0.4 4 0.1 4-0.4 4-0.6 4-0.9 4-1.3 0-0.8-4-1.3-4-0.2-4-0.2-4-0.2-4-0.7-4-1-4 1-4 0.7-4 0.1-4-0.1-4-0.3-4-0.4-4-0.7-3.9 0.5-4 0.3-4-0.6-4.1-0.3-4 0-4 0-4-0.1-4 0.6-4 0.5-4 0.1-4-0.1-4-0.6-4-0.3-4-0.3-4 0.2-4 0.1-4 0.6-4 0.2-4-0.3-4 0-4 0.1-4 0.3-4 0.2-4-0.4-4.1-0.2-4-0.5-4 0.1-4 0.2-3.9 0-4 0-4 0.5-3.9 0-4.1-0.4-4-0.2-4-0.1-4 0.4-4 0.3-4 0.4-4 0.1-4-0.2-4 0-4 0.1-4 0.1-4 0.1-4-0.4-4 0-4 0.5-4-0.5-4-0.7-4 0-4 0-4 0.4-4 0.1-4 0.1-4.1 0.1-4 0.1-4-0.4-4-0.3-3.9-0.1-4 0.2-4 1.1-4 0-4 0-4-0.8-4-0.5-4 0.8-3.9-0.1-4-1.1-4 0-4 0.1-4.1 0.2-4 0.2-4 0.6-4-0.1-4-1.3-4 0.4-4 0.7-4-0.5-4-0.4-4-0.1-4 0-4 0.2-4 0-4 0.1-4 0.5-4 0.4-4 0.2-4 0.1-4-0.2-4-0.1-4-0.2-4.1-0.4-4-0.1-3.9 0.9-4 0.2-3.9-0.5-4 0-4 0-4-0.1-4-0.1-4.1-0.2-4-0.2-4.1-0.7-4 0.2-4 0.3-3.9 0.5-4 0.3-4-0.6-4-0.2-4.1-0.2-4 0.5-3.9 1-4-0.1-4 0-4-0.6-4-0.1-4 0.2-4 0-4.1 0-4-0.1-4 0-4 1.2-4 0.3-4-0.5-3.9 0.2-4 0.4-4.1-0.5-3.9-0.4-4-0.3-4 0.1-4 0.6-4-0.1-4-0.2-4 0.6-4 0.5-4 0.2-4-0.2-4-0.6-4.1-0.2-4-0.2-4-0.2-3.9 0-4 0.3-3.9 0.2-4 0.5-4-0.4-4-0.6-4 0.1-4.1 0.1-4 0-4 0-4-0.1-4 0.1-4 0.1-4-0.6-4-0.3-4 0.5-4 0-4-0.3-4 0.2-4 0.5-4 0.5-4 0.3-4-0.5-4 0-4 0.4-4 0.2-4 0.1-4.1-0.2-4-0.1-4 0.1-3.9 0.1-4 0.3-3.9-0.5-4-0.9-4 0.1-4 0.1-4-0.2-4.1 0-4 0.2-4.1-0.1-4 0-4 0.3-3.9 0.2-4 0.5-4-0.1-3.9-0.3-4-0.4-4-0.4-4 0.1-4.1 0-4-0.9-4 0-4 0.6-4-0.3-4-0.6-4 1-4 0.7-4 0.1-4-0.2-4-1-4 0.1-4 0.3-4 0.1-4 0.1-4 0.2-4-0.1-4-0.7-3.9 0-4 0-4-0.1-4 0-4 0.3-4-0.2-4.1-0.8-4 0.3-4 0.7-4.1 0.1-4 0.1-4-1.1-3.9-0.1-4 0.5-4 0.2-4 0.1-4-0.4-4-0.2-4.1 0.7-4 0.2-4-0.1-4 0-4-0.1-4 0.7-3.9 0.4-4 0.2-4-0.3-4-1.1-4 0.5-4 0.8-4-0.7-4.1-0.4-4-0.3-4 0.3-3.9 1.4-4-0.2-4-0.5-4 0.1-4 0.1-4-0.8-4-0.2-4-0.1-4 0.4-3.9 0.6-4 0.2-4 0.1-4-0.5-4-0.2-4.1 0-4-0.3-4-0.5-4-0.3-4-0.2-4 0-4 0.3-4 0.9-4-0.3-4-0.5-4-0.2-4-0.2-4 0.2-4 0.2-4 0.6-4-0.3-4-0.4-4-0.1-4-0.1-4 0.2-4 0.2-4 0.6-4-0.1-4-0.2-4-0.5-4-0.3-4 1-4 0.4-4 0-4 0.4-4 1.3z" fill="#000"/></svg>
